<?xml version="1.0" encoding="utf-8"?>
<!-- Generator: Adobe Illustrator 27.0.1, SVG Export Plug-In . SVG Version: 6.00 Build 0)  -->
<svg version="1.1" id="Layer_1" xmlns="http://www.w3.org/2000/svg" xmlns:xlink="http://www.w3.org/1999/xlink" x="0px" y="0px"
	 viewBox="0 0 714 714" style="enable-background:new 0 0 714 714;" xml:space="preserve">
<g>
	<path d="M139.15271,417.9722595c19.4138184-2.12854,35.9953613-18.7280273,39.1279297-38.0053711
		c3.1325684-19.2772217-6.7624512-39.7436523-23.2663574-50.1860352
		c-5.0131836-3.1717529-11.1645508-5.4820557-16.8537598-4.5708008
		c-9.0332031-7.6762695-16.8459396-16.7915039-22.9782639-26.9372559
		c-4.1748047-6.9072266-7.6328125-14.4373779-8.5144043-22.4598389s1.0922852-16.6262207,6.6101074-22.5159912
		c1.8125-1.9345703,4.21875-3.6260986,6.8657227-3.479126c4.3564453,0.2418213,6.9145508,5.2681885,6.9052734,9.6314697
		s-1.6306152,8.6210938-1.4899902,12.9821777c0.2912598,9.0270996,9.4343185,16.7277832,18.379631,15.4794922
		c5.3220215-0.7425537,9.8964844-4.0523682,14.065918-7.4417725c4.1696777-3.3894043,8.3305664-7.0491943,13.4335938-8.7322998
		c5.1027832-1.6833496,11.5058594-0.8114014,14.6176758,3.5692139c3.036377,4.2744141,2.9384766,11.3961182,7.9277344,13.0076904
		c2.8979492,0.9360352,6.0112305-0.7580566,8.1943359-2.8815918s3.9179688-4.7529297,6.4675293-6.4185791
		c3.8393555-2.5079346,8.8950195-2.3699951,13.2751465-1.0115967s8.3325195,3.7956543,12.4912109,5.7280273
		c8.7351074,4.0587158,18.4975586,5.8828125,28.1088867,5.2521973c2.4645996-0.1616211,5.1047363-0.565918,6.8867188-2.2764893
		c3.6169434-3.47229,1.4350586-9.6365967-1.6791992-13.5662842c-1.5109863-1.9068604-3.1730957-3.630127-4.9377441-5.2281494
		c0.9543457-1.243042,1.6437988-2.6890869,1.9626465-4.2237549c0.2937012-1.411499,0.269043-2.8797607-0.0310059-4.2895508
		c2.8349609,1.3146973,5.4494629,3.0297852,7.7087402,5.2597656c1.2473145,1.2310791,3.0087891,2.7142334,4.5026855,1.7978516
		c1.4919434-0.9150391,0.9602051-3.2075195,0.0778809-4.7188721c-3.4069824-5.8358154-9.2651367-9.9224854-15.5351562-12.4420166
		c-6.2702637-2.5195312-13.0021973-3.6265869-19.6711426-4.7164307
		c-13.1052246-2.1417236-26.2104492-4.2833252-39.3156738-6.4249268
		c-4.3762207-2.9604492-8.2978516-6.4633789-11.4978027-10.8312988c7.7563477-0.4793701,15.5446777-0.3780518,23.2858887,0.2822266
		c0.7529297,2.112915,0.8718262,4.4521484,0.2045898,6.5969238c2.4672852-0.4230957,4.4489746-2.3868408,5.5512695-4.6342773
		c0.2062988-0.4210205,0.3798828-0.854248,0.5395508-1.2927246c3.1694336,0.3962402,6.3254395,0.8947754,9.4663086,1.477417
		c0.7927246,2.2960205,1.112793,4.7559814,0.8571777,7.1721191c2.8793945-0.296875,5.619873-1.7712402,7.4543457-4.010376
		c0.3063965-0.3742676,0.5769043-0.7753906,0.8305664-1.1868896c3.0275879,0.7440186,6.0390625,1.5531006,9.0187988,2.4699707
		c0.1611328,0.3948975,0.3059082,0.7965088,0.4128418,1.2124023c0.583252,2.2718506,0.1450195,4.9119873-1.5585938,6.524292
		c2.9453125-0.0466309,5.6640625-1.7625732,7.5922852-3.9893799c0.345459-0.3990479,0.6630859-0.8179932,0.9694824-1.2451172
		c3.4118652,1.2332764,6.7827148,2.5755615,10.1027832,4.0369873c0.1164551,2.4057617-0.5117188,4.8496094-1.9111328,6.814209
		c2.8540039-0.7275391,5.5019531-2.1723633,7.7155762-4.1131592c2.9333496,1.4344482,5.8322754,2.939209,8.6711426,4.5537109
		c0.4643555,0.2640381,0.9394531,0.5301514,1.4191895,0.7958984c-0.2895508,2.1644287-1.1755371,4.2493896-2.611084,5.8974609
		c3.0974121,0.2203369,6.1845703-0.9925537,8.4926758-3.0576172c3.9208984,1.5157471,7.9438477,2.1075439,11.4736328,0.0760498
		c3.5449219-2.0404053,5.3457031-6.3366699,5.3256836-10.4267578c-0.0197754-4.0899658-1.5888672-8.0142822-3.456543-11.6531982
		c-3.2978516-6.4268799-7.5878906-12.3111572-10.7851562-18.7889404c-3.1970215-6.4775391-5.284668-13.8670654-3.746582-20.9251709
		c1.9460449-8.9313965,9.4345703-17.9612427,5.2272949-26.076416c-4.2819824-8.2596436-16.9230957-7.4727173-23.4526367-14.1000977
		c-3.6262207-3.680481-4.9104004-9.2433472-8.7145996-12.7393799c-8.5078125-7.8186035-22.7541504-0.7264404-33.5356445-4.8826294
		c-5.4443359-2.0987549-10.4748535-7.1302414-16.1245117-5.6715012c-4.0075684,1.034729-6.5512695,5.0746384-10.3691406,6.6730881
		c-4.4890137,1.8793335-9.6479492,0.0215454-14.4726562,0.656189c-5.1757812,0.6806641-9.4975586,4.1350708-13.5246582,7.4564819
		c-8.0488281,6.6384277-16.0974121,13.2767944-24.7937012,21.7504272c0.1833496-4.1344604-0.8405762-8.5014648-3.6860352-11.5065918
		s-7.7556152-4.2174683-11.2919922-2.067749c-3.5366211,2.1497192-4.4492111,7.9266968-1.2314453,10.5292358
		c-3.197258,0.7252197-6.3942795,1.4504395-9.591301,2.1756592c2.5571289-6.1904907-3.8898926-13.9805298-10.4494629-12.6262207
		c-6.5593262,1.3543701-9.3937988,11.0606689-4.5942383,15.7321777c-4.4338379-0.0718994-8.8527832,2.0161743-11.6125488,5.4871826
		c-1.4379883-6.1262817-9.7084961-9.4142456-14.9602051-5.9473877c-5.251709,3.4669189-5.4782715,12.3643188-0.4099121,16.0939331
		c-4.2236328,1.9345093-7.8974609,5.0534668-10.4914551,8.9075928c-1.9125977-5.4494019-10.3432655-7.0001831-14.069828-2.5881348
		c-3.7265625,4.4119873-0.7873535,12.4644775,4.9050293,13.4385986c-3.9536133,3.9101562-6.3901367,9.3168945-6.7006836,14.8688965
		c-5.0461426-0.7770996-10.9162598,0.7304688-13.4287109,5.1750488c-2.5126953,4.4445801,0.7897949,11.4912109,5.8669434,10.9521484
		c-3.8791504,7.3952637-6.0925293,15.6583252-6.4296875,24.0024414c-3.869873-0.3995361-8.0834942-0.1245117-11.1572247,2.2606201
		c-3.0734863,2.3852539-4.2351074,7.4593506-1.4816895,10.2078857c1.2480469,1.2456055,3.0192871,1.8060303,4.4306641,2.8632812
		c7.2944317,5.4650879,0.6245117,18.645752,6.4926739,25.6201172c-4.5390625-0.1848145-8.6455059,4.3896484-7.9741192,8.8824463
		c0.6716309,4.4929199,5.9360332,7.666626,10.9484844,5.5806885c10.2226562,25.4086914,25.3713417,48.8249512,44.3564491,68.5650635
		c3.0251465,3.1453857,6.2736816,6.2633057,9.8410645,8.7860107c-0.3291016,0.5557861-0.6582031,1.1115723-0.9873047,1.6674805
		C99.4786453,406.7679138,119.7388992,420.1009216,139.15271,417.9722595z M243.6119385,255.45224
		c5.9414062,0.0549316,12.1325684,0.6932373,17.7246094,2.5976562c-1.2509766,1.9718018-2.9194336,3.6787109-4.8518066,4.994873
		c-4.520752-2.9885254-9.4978027-5.4190674-14.6799316-7.595459
		C242.4075928,255.4466248,243.0101318,255.4467468,243.6119385,255.45224z M122.1055984,387.2708435
		c2.7609863-9.5289307,7.4079514-18.5073242,13.5934982-26.263916c2.4016113-3.0114746,5.7851562-6.1115723,9.5625-5.3575439
		c3.2177734,0.642334,5.1970215,3.8112793,6.7302246,6.7122803c3.3081055,6.2590332,6.4147949,12.923584,6.4951172,20.0026855
		c0.0803223,7.0789795-3.6647949,14.6655273-10.3669434,16.9458008c-4.1469727,1.4111328-8.7905273,0.6132812-12.7631836-1.2320557
		S127.9556961,393.4170837,122.1055984,387.2708435z"/>
	<path d="M414.7860107,367.936615c-4.1225586-1.4997559-8.7543945-1.0688477-12.8762207-2.5708008
		c-5.3105469-1.9351807-9.0864258-6.9245605-10.7661133-12.3215332c-1.6791992-5.3967285-1.5263672-11.1896973-0.9360352-16.8109131
		c0.4440918-4.2303467,1.2001953-8.6190186,3.7241211-12.0428467c2.5236816-3.4240723,7.3063965-5.5319824,11.1711426-3.755127
		c3.7126465,1.7067871,5.2409668,6.1184082,6.0412598,10.1257324c0.800293,4.0070801,1.4121094,8.3947754,4.3364258,11.2490234
		c2.9245605,2.8540039,9.0893555,2.4178467,9.902832-1.5866699c0.8647461-9.5239258,0.208252-19.6081543-4.2814941-28.2476807
		c-4.4899902-8.6395264-13.7189941-15.4802246-23.3952637-14.397583
		c-8.9208984,0.9981689-16.0776367,8.4458008-19.2954102,16.8256836s-3.2126465,17.6087646-2.9575195,26.581543
		c0.2150879,7.5681152,0.5957031,15.236084,2.8933105,22.4501953s6.748291,14.0285645,13.3901367,17.6630859
		c14.2233887,7.7834473,18.592041,25.9859619,19.3059082,41.3381348
		c0.7143555,15.3522949-4.5332031,30.9052734-14.4020996,42.6870117c-2.2973633,2.7426758-4.9448242,5.3608398-8.2922363,6.6237793
		c-3.3476562,1.2631836-7.5366211,0.8619385-9.9484863-1.7807617c-2.5979004-2.8466797-2.4245605-7.2392578-1.546875-10.9919434
		s2.3103027-7.5437012,1.6936035-11.3479004c-0.6169434-3.8041992-4.404541-7.4521484-8.0371094-6.1650391
		c-2.4750977,0.8771973-3.7614746,3.5512695-4.6723633,6.0144043c-2.4123535,6.5229492-3.9921875,13.3533936-4.6889648,20.2731934
		c-0.1784668,1.7720947-0.2619629,3.6220703-0.1950684,5.4621582c-2.8764648,2.8271484-3.2751465,8.065918-6.7797852,10.2844238
		c-3.5102539,2.2219238-8.260498,0.1472168-11.1281738-2.8587646c-0.8012695-0.8399658-1.5263672-1.7503662-2.2290039-2.6807861
		c6.8303223-9.4921875,10.8273926-21.244751,13.8237305-32.7189941
		c12.088623-46.2902832,13.1223145-95.4282227,2.9914551-142.1860352
		c-6.6989746-2.744873-16.5180664-1.5002441-23.1105957,3.2943115
		c-6.5925293,4.7946777-10.6005859,12.3118896-13.9052734,19.7635498
		c-18.7080078,42.185791-21.65625,89.4125977-24.3347168,135.482666c-0.2468262,4.2458496-0.3303223,8.8149414,0.1833496,13.1699219
		c-0.5026855,0.7365723-0.9189453,1.5466309-1.2241211,2.4453125c-0.951416,2.8044434-0.8256836,6.3706055-3.2836914,8.0220947
		c-3.1005859,2.0828857-7.0537109-0.8323975-9.6206055-3.5456543c-3.5043945-3.7042236-7.0085449-7.4084473-10.5129395-11.1126709
		c19.2370605-49.276001,28.7646484-102.3244629,27.8474121-155.215332
		c-0.0627441-3.6105957-0.3662109-7.6557617-3.0712891-10.0478516c-2.7050781-2.3922119-8.3520508-0.7631836-11.1809082,2.8189697
		c-3.0632324,33.555542-8.0461426,66.9350586-14.9050293,99.9246826
		c-1.1794434-30.5009766-5.0788574-60.9710693-8.9785156-91.2873535c-0.2956543-2.2995605-0.6381836-4.7165527-2.0449219-6.5594482
		c-0.4147949-0.5430908-0.9624023-0.9946289-1.5651855-1.3457031c-0.734375-1.9827881-1.9643555-3.6119385-3.9597168-4.4525146
		c-3.5795898-1.5075684-7.8496094,0.6862793-9.994873,3.9240723c-2.1450195,3.2380371-2.6914062,7.2416992-3.2209473,11.0894775
		c-6.3486328,46.135376-18.1643066,91.5123291-35.0908203,134.8973389
		c-1.9799805,1.2148438-4.1000977,2.0859375-6.3850098,1.9672852c-5.4191895-0.28125-9.0246582-6.1975098-9.1420898-11.6229248
		c-0.0063477-0.2954102-0.0063477-0.5965576-0.0041504-0.9000244c2.5014648-3.1904297,4.0742188-7.1889648,5.458252-11.0629883
		c12.6906738-35.526123,19.9460449-72.7207031,27.1567383-109.75c1.0666504-5.4782715,1.2834473-12.7102051-3.8344727-14.9371338
		c-3.6335449-1.5810547-8.003418,0.7593994-10.0773926,4.1359863c-2.0737305,3.3765869-2.4453125,7.4888916-2.8452148,11.4312744
		c-4.1638184,41.0314941-17.1462402,81.145874-37.8125,116.8364258c0.3134766,0.4570312,0.6291504,0.8857422,0.9458008,1.3010254
		c-1.1635742,1.947998-1.717041,4.25-1.1293945,6.4129639c0.7810059,2.8746338,3.3005371,4.8630371,5.2729492,7.0952148
		c1.9726562,2.2321777,3.5014648,5.5544434,1.9523926,8.0987549c-1.6210938,2.6625977-5.4128418,2.6923828-8.5114746,2.3511963
		c-8.6196289-0.9493408-17.4304199-2.2828369-25.8754883-0.3135986
		c-11.3210449,2.6396484-20.7434006,11.175415-26.0480881,21.519043c-5.3046875,10.3435059-6.807373,22.3190918-6.012207,33.9165344
		c0.3000488,4.3729248,0.9423828,8.8203125,2.9367676,12.7233887c1.9946289,3.9031982,5.5463867,7.2185059,9.8642578,7.9724121
		c-1.9121094-6.5947266-0.4709473-14.0706787,3.7558594-19.4818115
		c-1.4416504,11.4686279,6.3852463,23.4024658,17.478508,26.6500244c-2.2939453-3.6311035-3.8120117-7.7495117-4.4238281-12.0006104
		c2.755127-1.770874,3.7053223-5.4000244,3.5827637-8.6727295s-1.0783691-6.4753418-1.1516113-9.7495117
		c-0.2080078-9.3191223,6.9321289-17.5393372,15.3742676-21.4917297c8.4421387-3.9522705,18.0183105-4.5084229,27.3269043-5.0002441
		c1.3278809-0.0700684,2.90625-0.0224609,3.6455078,1.0827637c0.5129395,0.7664795,0.4155273,1.7727051,0.2983398,2.6875
		c-1.112793,8.6813965-2.2255859,17.3627014-3.3381348,26.0439758c-0.6074219,4.7385254-1.2124023,9.572998-0.3100586,14.2642822
		s3.5837402,9.3006592,7.9296875,11.28479c-0.3918457-10.135498,2.5615234-20.3725586,8.291748-28.7419434
		c-1.1428223,10.9462891,3.302002,22.3304443,11.5593262,29.6064453c3.1032715-7.8898926,3.5739746-16.789917,1.3200684-24.9631348
		c4.3630371,4.8815918,8.0449219,10.3713379,10.9055176,16.260498c4.6965332-4.6486816,5.3728027-12.0679932,4.230957-18.5767822
		c-1.1416016-6.5087891-3.7858887-12.6988831-4.7058105-19.2428284c-0.4672852-3.3223877-0.482666-6.6896973-0.4973145-10.0447998
		c-0.0476074-10.9525146-0.095459-21.9051514-0.1430664-32.8575439c0.1337891-0.1275635,0.2717285-0.2514648,0.4006348-0.3828125
		c3.984375-4.0618896,6.1486816-9.5256348,8.1154785-14.8649902c9.1635742-24.8762207,16.2089844-50.5297852,21.0681152-76.5908203
		c0.4375,36.869873,0.8752441,73.7397461,1.3127441,110.6096191c0.5588379,0.3615723,1.1086426,0.6103516,1.6520996,0.7989502
		c1.567627,5.6933594,6.5234375,9.8173828,11.2768555,13.3939209c10.1000977,7.5993652,20.6259766,14.7943115,29.2958984,23.9917297
		c8.6699219,9.1975098,15.4746094,20.7983398,16.2424316,33.4146729s-5.6228027,26.1148682-17.2087402,31.1678467
		c-10.4460449,4.5559082-23.8303223,2.182373-32.3569336,9.7437744
		c-11.3972168-1.6580811-23.1115723,8.1009521-23.5390625,19.6099854
		c5.3486328-1.9373779,11.0612793-2.8640137,16.7480469-2.7167969c-1.8969727,1.9443359-3.7939453,3.8887939-5.690918,5.8331299
		c-4.9445801-2.1875-11.2614746-0.6884766-14.6962891,3.4874268c-3.4345703,4.1760254-3.6865234,10.6633301-0.5859375,15.0930176
		c3.7021484-4.4172363,10.6040039-4.4025879,16.0419922-2.4924316c5.4379883,1.9099121,10.3417969,5.2983398,15.9672852,6.5537109
		c5.8901367,1.3144531,12.0183105,0.1739502,17.9445801-0.9675293c11.2851562-2.173584,22.5703125-4.34729,33.8557129-6.5209961
		c7.6630859-1.4760742,15.6386719-3.0891113,21.8076172-7.8691406c7.9038086-6.1242676,11.3457031-16.2001953,16.239502-24.9196777
		c5.8269043-10.3823242,14.1760254-19.3374023,24.1252441-25.876709
		c5.3122559-3.4915771,11.4726562-6.7579346,13.7890625-12.6779785c2.661377-6.8024902-0.9321289-14.5665283-5.9470215-19.8776855
		c-5.0146484-5.3112793-11.4240723-9.1811523-16.2741699-14.6430664
		c-4.8500977-5.4620361-7.9709473-13.5509338-4.6977539-20.0810852c1.7285156-3.4483643,4.9348145-5.8747559,8.0319824-8.1739502
		c2.5310059-1.8790283,5.0622559-3.7579346,7.5932617-5.6369629c18.8586426-5.5985107,33.748291-21.321167,41.1062012-39.5706787
		c7.3769531-18.2961426,7.8027344-38.8347168,4.2568359-58.2407227
		C426.9300537,381.1543884,423.3726807,371.0601501,414.7860107,367.936615z M336.4447021,442.9811707
		c-2.9221191,2.9056396-7.4416504,4.5622559-11.2734375,3.0455322c-5.4348145-2.1513672-6.895752-9.0180664-7.5822754-14.8227539
		c-2.7841797-23.5412598-5.2011719-48.9990234,6.7260742-69.4851074c3.0053711-5.1618652,7.3791504-10.151001,13.263916-11.1744385
		c5.8847656-1.0233154,12.786377,4.0831299,10.4719238,4.5333252c5.1450195,25.6055908,3.1655273,52.6044922-5.6586914,77.185791
		C340.9996338,436.1421814,339.3670654,440.0756531,336.4447021,442.9811707z"/>
	<path d="M688.6488037,199.7629089c-3.1547852-22.1428833-12.8310547-42.9771729-25.4025879-61.4763184
		c-13.4523926-19.7954636-30.6555176-37.5087204-51.8696289-48.589653
		c-21.2141113-11.0809937-46.7243652-15.0280151-70.0244141-7.8966064
		c-33.8759766,11.1134033-67.7519531,22.2267456-101.6279297,33.3400879
		c-23.753418,7.7925415-47.6757812,15.624321-72.4614258,18.8832932
		c-16.2148438,2.132019-33.1079102,2.2098389-48.4597168-3.4284058c-3.654541-1.3421631-8.5129395-2.6827927-10.8156738,0.456543
		c-1.4921875,2.0345459-0.8417969,5.0570679,0.8232422,6.9528198c1.6652832,1.895752,4.0922852,2.9138184,6.4572754,3.793396
		c37.4328613,13.9221191,79.3557129,7.9857178,117.6813965-3.2466431
		c38.3259277-11.2322922,74.8789062-31.0535812,112.1818848-33.711235
		c21.8078613-1.5537109,44.0415039,10.0362549,55.2561035,28.8040695
		c3.1445312,5.2622681,7.736084,12.0493164,13.5424805,10.0828857c-5.6923828,3.409729-5.9533691,11.8812866-3.0498047,17.8476562
		c2.9033203,5.9663696,8.0324707,10.546814,11.5141602,16.1952515c3.4816895,5.6484985,4.9677734,13.6002808,0.5300293,18.5332642
		c-4.6806641-2.3504639-10.5974121,1.583252-12.1022949,6.6003418c-1.5046387,5.0168457,0.1560059,10.4104004,2.2133789,15.2270508
		c2.0576172,4.8168945,4.5681152,9.6237793,4.8251953,14.8552246c-7.041748-4.6434326-17.8730469-1.6914062-21.5849609,5.8828125
		c-3.1655273,6.4594727-0.4904785,14.9350586,5.3144531,18.9824219c-3.409668,1.456665-6.6335449,3.6046143-9.6914062,5.723877
		c-7.3359375,5.0839844-15.0852051,10.9237061-17.5078125,19.5140381c-1.7402344,6.1710205-0.402832,12.7412109,0.940918,19.010376
		c6.0415039,28.1875,12.0827637,56.375,18.1242676,84.5625c10.1359863-8.0794678,15.7072754-12.5993652,16.8686523-18.9989014
		c2.1188965-11.6761475-11.5458984-21.8428955-9.5720215-33.5444336
		c8.3417969,1.1280518,16.2409668,5.2830811,21.8967285,11.5178223c1.3051758,1.4388428,2.7053223,3.0997314,4.6391602,3.2828369
		c1.8591309,0.1759033,3.5114746-1.0908203,4.9465332-2.2856445c3.1804199-2.6481934,6.3608398-5.2963867,9.5410156-7.9445801
		c1.0556641-0.8790283,2.1535645-1.9221191,3.0317383-3.0578613c0.3012695-0.1094971,0.5964355-0.2321777,0.8808594-0.3745117
		c4.1970215-2.1025391,6.7077637-6.4492188,8.9519043-10.5722656c10.501709-19.2941895,20.4711914-39.010498,27.1420898-59.9401855
		C688.4537354,243.8147888,691.7471924,221.5103455,688.6488037,199.7629089z M598.4534912,306.0906677
		c-1.7539062-5.2473145-3.3994141-10.5310059-4.9345703-15.8464355c-0.5388184-1.8647461-1.048584-3.9389648-0.190918-5.6801758
		c1.0349121-2.1003418,3.598877-2.8515625,5.878418-3.3863525c3.5822754-0.840332,7.5703125-1.6289062,10.7626953,0.2008057
		c2.1062012,1.2072754,3.4909668,3.3895264,4.347168,5.6612549c1.6376953,4.3457031,1.5339355,9.4559326-0.8564453,13.4376221
		S606.2359619,307.0190125,598.4534912,306.0906677z M642.1383057,326.0884705
		c-10.7172852-5.7753906-22.9484863-8.7125244-35.1196289-8.4206543
		c15.8291016-7.0343018,25.5119629-24.7174072,22.6972656-41.0889893
		c-1.0129395-5.8919678-4.0297852-11.7852783-8.3977051-15.737793c15.4672852,1.9016113,29.2883301,14.168335,32.6784668,29.4381104
		C656.8790283,303.2614441,652.0096436,317.4668884,642.1383057,326.0884705z"/>
	<path d="M588.3240967,506.1582947c-6.9760742-20.916626-20.6179199-39.5539551-38.4472656-52.5263672
		c-3.6733398-2.6728516-7.5742188-5.1622314-10.4611816-8.6699219c-2.8867188-3.5078125-4.6298828-8.3511963-3.1733398-12.6542969
		c1.65625-4.8924561,6.7058105-7.5914307,10.8969727-10.6103516c8.8359375-6.364502,15.1567383-16.0895996,17.5224609-26.7080078
		c4.9736328-11.8442383,6.9294434-24.9190674,7.0046387-37.8165283c0.0900879-15.4520264-2.3776855-30.7915039-4.8388672-46.0465088
		c-0.541748-3.3583984-1.1137695-6.8034668-2.8271484-9.7423096s-4.8479004-5.3029785-8.2436523-5.0965576
		c-4.0166016,0.2441406-7.0935059,4.0076904-7.9660645,7.9360352c-0.8725586,3.9284668-0.0632324,8.0083008,0.635498,11.9713135
		c2.489502,14.1181641,3.5625,28.4857178,3.1982422,42.8170166c-0.0715332,2.8103027-0.2351074,5.7507324-1.6682129,8.1691895
		c-1.4331055,2.4185791-4.5512695,4.0776367-7.1245117,2.9459229c-2.4838867-1.0922852-3.3852539-4.0916748-4.0031738-6.7340088
		c-3.3630371-14.3833008-6.7260742-28.7667236-10.0891113-43.1501465
		c-0.9240723-3.9521484-1.9265137-8.0651855-4.5424805-11.1685791c-2.6157227-3.1033936-7.3693848-4.8116455-13.4777832-0.5692139
		c5.2028809,27.4946289,10.4055176,54.9893799,15.6083984,82.4840088
		c0.9904785,5.2342529,2.0197754,10.5767822,4.6484375,15.2103271c0.7932129,1.3985596,1.7658691,2.7258301,2.8793945,3.9108887
		c-2.4450684,3.2683105-5.9489746,5.7307129-9.7224121,7.3591309c-1.4575195,0.6289062-2.9575195,1.137207-4.4799805,1.5737305
		c-0.534668-1.9675293-1.215332-3.9107666-1.9013672-5.8234863c-11.6965332-32.626709-23.4418945-65.3657227-39.357666-96.1553955
		c-1.7700195-3.4243164-3.657959-6.9077148-6.5905762-9.4095459s-7.1733398-3.8398438-10.7285156-2.3499756
		c-5.3955078,2.2609863-6.5566406,9.2540283-6.9387207,15.0916748c-2.9775391,45.4869385-5.9553223,90.973877-8.9328613,136.4606934
		c-0.2502441,0.5847168-0.4326172,1.2041016-0.5322266,1.8581543c-0.1762695,1.1595459-0.0913086,2.2910156,0.1889648,3.3845215
		c-0.0546875,0.8344727-0.109375,1.6689453-0.1638184,2.503418c0.4187012,0.0603027,0.8278809,0.0994873,1.2324219,0.128418
		c1.2041016,2.197876,3.0593262,4.1850586,4.9399414,5.8596191c13.7912598,12.2817383,31.7119141,18.6115723,48.9245605,25.3022461
		c17.2126465,6.6907959,34.8481445,14.4967041,46.6938477,28.6642151
		c11.8457031,14.1674805,15.9511719,36.4798584,4.5151367,50.9802246
		c-6.498291,8.239502-16.6416016,12.5941162-24.8061523,19.1865234
		c-8.1645508,6.5922852-14.6191406,18.0037842-9.8056641,27.3282471c3.7915039-5.4648438,10.7246094-8.572998,17.3269043-7.7680664
		c-6.2297363,2.9038086-10.4208984,9.7124023-10.2072754,16.5823975c9.8061523-0.3079834,19.6953125-0.6268311,29.2290039-2.9414062
		c9.5341797-2.3145752,18.8105469-6.803833,25.2231445-14.2290039
		c10.2871094-11.9118652,11.873291-29.5241699,22.1716309-41.4263916
		c4.8540039-5.6098633,11.9226074-10.720459,11.845459-18.1381836c-0.0742188-7.1398926-6.765625-12.0842285-11.2397461-17.6486816
		C593.8504639,527.9155273,591.8023682,516.5872803,588.3240967,506.1582947z M463.7244873,375.4211121
		c0.5983887-7.3756104,1.1965332-14.7510986,1.7946777-22.1265869c0.1835938-2.2629395,0.5878906-4.8881836,2.5678711-5.9987793
		c1.3964844-0.7830811,3.1994629-0.5007324,4.5708008,0.3249512c1.371582,0.8259277,2.3930664,2.1148682,3.3361816,3.4085693
		c6.7651367,9.2819824,11.0783691,20.3345947,9.0424805,31.0101318c-3.3562012,0.3508301-6.2895508,2.3125-9.4020996,3.6157227
		s-7.0366211,1.8369141-9.5944824-0.3637695C463.3746338,382.9981384,463.4403076,378.9253845,463.7244873,375.4211121z
		 M500.1239014,439.8824158c-2.3857422,7.630127-6.2314453,16.1135254-13.9416504,18.2255859
		c-5.0109863,1.3728027-10.3144531-0.4172363-15.0546875-2.5450439c-2.9511719-1.3249512-5.9118652-2.8082275-8.979248-3.7869873
		c0.4702148-1.5158691,0.8046875-3.065918,0.9978027-4.5939941c1.1508789-9.1094971-0.6826172-18.5356445,1.5661621-27.4379883
		s11.2148438-17.3747559,19.8334961-14.208252c4.8569336,1.7844238,7.8747559,6.6444092,9.7414551,11.4702148
		c1.8666992,4.8259277,3.0009766,10.0148926,5.8549805,14.3308105c0.5256348,0.7949219,1.1352539,1.5548096,1.8095703,2.2580566
		C501.3302002,435.7356873,500.7423096,437.9043884,500.1239014,439.8824158z"/>
</g>
</svg>
